<svg xmlns="http://www.w3.org/2000/svg" viewBox="0 -50 640 600" width="640" height="600" role="img" aria-label="Why keep only a few possibilities?"><style>:root{--paper:#FFFFFF;--ink:#121417;--graphite:#5F646B;--line:#E4E6E9;--accent:#F04E23;--wash:#F5F5F3;}
text{font-family:"IBM Plex Mono",ui-monospace,SFMono-Regular,Menlo,Consolas,monospace;font-size:15px;fill:#5F646B}
text.bl{font-family:"IBM Plex Sans",ui-sans-serif,system-ui,-apple-system,"Segoe UI",Roboto,Helvetica,Arial,sans-serif;font-size:17px;fill:#121417}
text.wl{font-family:ui-sans-serif,system-ui,sans-serif;font-size:13px;fill:#FFFFFF}
text.a{fill:#F04E23} text.x{font-family:ui-sans-serif,system-ui,sans-serif;font-size:34px;fill:#F04E23;font-weight:600}
.bx{fill:#F5F5F3;stroke:#121417;stroke-width:1.5;stroke-linejoin:round}
.bx2{fill:#FFFFFF;stroke:#121417;stroke-width:1.5;stroke-linejoin:round}
.hv{fill:#121417;stroke:#121417;stroke-width:1.5}
.nb{fill:#FFFFFF;stroke:#F04E23;stroke-width:2}
.nw{fill:#F04E23;stroke:#121417;stroke-width:1.2}
.dk{fill:#E4E6E9;stroke:#121417;stroke-width:1.5}
.fl{stroke:#5F646B;stroke-width:1}
.acc{stroke:#F04E23;stroke-width:4;stroke-linecap:round}
.ring{fill:none;stroke:#F04E23;stroke-width:2}
.dash{fill:none;stroke:#F04E23;stroke-width:1.6;stroke-dasharray:6 5}
.edge{stroke:#5F646B;stroke-width:1.2}
.roll{stroke:#5F646B;stroke-width:1.6;stroke-dasharray:2 5;stroke-linecap:round}
.cell{fill:#FFFFFF;stroke:#5F646B;stroke-width:1}
.fp{fill:none;stroke:#F04E23;stroke-width:2.5}
.idk{fill:#E4E6E9;stroke:#5F646B;stroke-width:.8} .idk2{fill:color-mix(in srgb,#E4E6E9 80%,#000);stroke:#5F646B;stroke-width:.8} .idk3{fill:color-mix(in srgb,#E4E6E9 88%,#000);stroke:#5F646B;stroke-width:.8}
.ia,.ib,.ic,.id{stroke:#121417;stroke-width:.9;stroke-linejoin:round}
.ia{stroke:#F04E23;stroke-width:1.2} .ia.t{fill:#FFFFFF} .ia.r{fill:color-mix(in srgb,#FFFFFF 88%,#000)} .ia.fr{fill:color-mix(in srgb,#FFFFFF 80%,#000)}
.id.t{fill:#F5F5F3} .id.r{fill:color-mix(in srgb,#F5F5F3 88%,#000)} .id.fr{fill:color-mix(in srgb,#F5F5F3 80%,#000)}
.ic.t{fill:#FFFFFF} .ic.r{fill:color-mix(in srgb,#FFFFFF 88%,#000)} .ic.fr{fill:color-mix(in srgb,#FFFFFF 80%,#000)}
.ib.t{fill:#E4E6E9} .ib.r{fill:color-mix(in srgb,#E4E6E9 88%,#000)} .ib.fr{fill:color-mix(in srgb,#E4E6E9 80%,#000)}
text.il{font-size:13px;fill:#121417}
.ihull{fill:#F04E23;fill-opacity:.16;stroke:#F04E23;stroke-width:1.6;stroke-dasharray:6 4}
.isl{fill:#FFFFFF;fill-opacity:.55;stroke:#5F646B;stroke-width:1.1;stroke-dasharray:5 4}
.img polygon{fill:#FFFFFF;fill-opacity:.35;stroke:#5F646B;stroke-width:.8;stroke-dasharray:3 2}
.dg{fill:#E4E6E9} .dok{fill:#121417} .dno{fill:none;stroke:#F04E23;stroke-width:1.2} .dring{fill:none;stroke:#F04E23;stroke-width:2}
.cap{font-family:ui-sans-serif,system-ui,-apple-system,"Segoe UI",Roboto,Helvetica,Arial,sans-serif;font-size:17px;fill:#121417}
.ttl{font-family:Georgia,"Times New Roman",serif;font-size:26px;fill:#121417}
@keyframes k1{0.000%{opacity:1}92.857%{opacity:1}97.619%{opacity:1}}@keyframes k2{0.000%{opacity:1}22.619%{opacity:1}25.794%{opacity:0}92.857%{opacity:0}97.619%{opacity:0}}@keyframes k3{0.000%{opacity:0}47.619%{opacity:0}51.190%{opacity:1}92.857%{opacity:1}97.619%{opacity:1}}@keyframes k4{0.000%{opacity:1}92.857%{opacity:1}97.619%{opacity:1}}@keyframes k5{0.000%{opacity:0}47.619%{opacity:0}51.190%{opacity:1}92.857%{opacity:1}97.619%{opacity:1}}@keyframes k6{0.000%{opacity:1}45.238%{opacity:1}48.413%{opacity:0.22}92.857%{opacity:0.22}97.619%{opacity:0.22}}@keyframes k7{0.000%{opacity:1}45.238%{opacity:1}48.413%{opacity:0.22}92.857%{opacity:0.22}97.619%{opacity:0.22}}@keyframes k8{0.000%{opacity:1}45.238%{opacity:1}48.413%{opacity:0.22}92.857%{opacity:0.22}97.619%{opacity:0.22}}@keyframes k9{0.000%{opacity:1}45.238%{opacity:1}48.413%{opacity:0.22}92.857%{opacity:0.22}97.619%{opacity:0.22}}@keyframes k10{0.000%{opacity:1}45.238%{opacity:1}48.413%{opacity:0.22}92.857%{opacity:0.22}97.619%{opacity:0.22}}@keyframes k11{0.000%{opacity:1}45.238%{opacity:1}48.413%{opacity:0.22}92.857%{opacity:0.22}97.619%{opacity:0.22}}@keyframes k12{0.000%{opacity:1}45.238%{opacity:1}48.413%{opacity:0.22}92.857%{opacity:0.22}97.619%{opacity:0.22}}@keyframes k13{0.000%{opacity:1}45.238%{opacity:1}48.413%{opacity:0.22}92.857%{opacity:0.22}97.619%{opacity:0.22}}@keyframes k14{0.000%{opacity:1}45.238%{opacity:1}48.413%{opacity:0.22}92.857%{opacity:0.22}97.619%{opacity:0.22}}@keyframes k15{0.000%{opacity:1}45.238%{opacity:1}48.413%{opacity:0.22}92.857%{opacity:0.22}97.619%{opacity:0.22}}@keyframes k16{0.000%{opacity:1}45.238%{opacity:1}48.413%{opacity:0.22}92.857%{opacity:0.22}97.619%{opacity:0.22}}@keyframes k17{0.000%{opacity:1}45.238%{opacity:1}48.413%{opacity:0.22}92.857%{opacity:0.22}97.619%{opacity:0.22}}@keyframes k18{0.000%{opacity:1}45.238%{opacity:1}48.413%{opacity:0.22}92.857%{opacity:0.22}97.619%{opacity:0.22}}@keyframes k19{0.000%{opacity:1}45.238%{opacity:1}48.413%{opacity:0.22}92.857%{opacity:0.22}97.619%{opacity:0.22}}@keyframes k20{0.000%{opacity:1}45.238%{opacity:1}48.413%{opacity:0.22}92.857%{opacity:0.22}97.619%{opacity:0.22}}@keyframes k21{0.000%{opacity:1}45.238%{opacity:1}48.413%{opacity:0.22}92.857%{opacity:0.22}97.619%{opacity:0.22}}@keyframes k22{0.000%{opacity:1}45.238%{opacity:1}48.413%{opacity:0.22}92.857%{opacity:0.22}97.619%{opacity:0.22}}@keyframes k23{0.000%{opacity:1}45.238%{opacity:1}48.413%{opacity:0.22}92.857%{opacity:0.22}97.619%{opacity:0.22}}@keyframes k24{0.000%{opacity:1}45.238%{opacity:1}48.413%{opacity:0.22}92.857%{opacity:0.22}97.619%{opacity:0.22}}@keyframes k25{0.000%{opacity:1}45.238%{opacity:1}48.413%{opacity:0.22}92.857%{opacity:0.22}97.619%{opacity:0.22}}@keyframes k26{0.000%{opacity:1}45.238%{opacity:1}48.413%{opacity:0.22}92.857%{opacity:0.22}97.619%{opacity:0.22}}@keyframes k27{0.000%{opacity:1}45.238%{opacity:1}48.413%{opacity:0.22}92.857%{opacity:0.22}97.619%{opacity:0.22}}@keyframes k28{0.000%{opacity:1}45.238%{opacity:1}48.413%{opacity:0.22}92.857%{opacity:0.22}97.619%{opacity:0.22}}@keyframes k29{0.000%{opacity:1}22.619%{opacity:1}25.794%{opacity:0}92.857%{opacity:0}97.619%{opacity:0}}@keyframes k30{0.000%{opacity:1}45.238%{opacity:1}48.413%{opacity:0.22}92.857%{opacity:0.22}97.619%{opacity:0.22}}@keyframes k31{0.000%{opacity:1}45.238%{opacity:1}48.413%{opacity:0.22}92.857%{opacity:0.22}97.619%{opacity:0.22}}@keyframes k32{0.000%{opacity:1}45.238%{opacity:1}48.413%{opacity:0.22}92.857%{opacity:0.22}97.619%{opacity:0.22}}@keyframes k33{0.000%{opacity:1}45.238%{opacity:1}48.413%{opacity:0.22}92.857%{opacity:0.22}97.619%{opacity:0.22}}@keyframes k34{0.000%{opacity:1}45.238%{opacity:1}48.413%{opacity:0.22}92.857%{opacity:0.22}97.619%{opacity:0.22}}@keyframes k35{0.000%{opacity:1}45.238%{opacity:1}48.413%{opacity:0.22}92.857%{opacity:0.22}97.619%{opacity:0.22}}@keyframes k36{0.000%{opacity:1}45.238%{opacity:1}48.413%{opacity:0.22}92.857%{opacity:0.22}97.619%{opacity:0.22}}@keyframes k37{0.000%{opacity:0}22.619%{opacity:0}26.190%{opacity:1}45.238%{opacity:1}48.413%{opacity:0.22}92.857%{opacity:0.22}97.619%{opacity:0.22}}@keyframes k38{0.000%{opacity:0}22.619%{opacity:0}26.190%{opacity:1}45.238%{opacity:1}48.413%{opacity:0.22}92.857%{opacity:0.22}97.619%{opacity:0.22}}@keyframes k39{0.000%{opacity:0}23.413%{opacity:0}26.984%{opacity:1}45.238%{opacity:1}48.413%{opacity:0.22}92.857%{opacity:0.22}97.619%{opacity:0.22}}@keyframes k40{0.000%{opacity:0}23.413%{opacity:0}26.984%{opacity:1}45.238%{opacity:1}48.413%{opacity:0.22}92.857%{opacity:0.22}97.619%{opacity:0.22}}@keyframes k41{0.000%{opacity:0}24.206%{opacity:0}27.778%{opacity:1}45.238%{opacity:1}48.413%{opacity:0.22}92.857%{opacity:0.22}97.619%{opacity:0.22}}@keyframes k42{0.000%{opacity:0}24.206%{opacity:0}27.778%{opacity:1}45.238%{opacity:1}48.413%{opacity:0.22}92.857%{opacity:0.22}97.619%{opacity:0.22}}@keyframes k43{0.000%{opacity:0}24.206%{opacity:0}27.778%{opacity:1}45.238%{opacity:1}48.413%{opacity:0.22}92.857%{opacity:0.22}97.619%{opacity:0.22}}@keyframes k44{0.000%{opacity:0}25.000%{opacity:0}28.571%{opacity:1}45.238%{opacity:1}48.413%{opacity:0.22}92.857%{opacity:0.22}97.619%{opacity:0.22}}@keyframes k45{0.000%{opacity:0}25.000%{opacity:0}28.571%{opacity:1}45.238%{opacity:1}48.413%{opacity:0.22}92.857%{opacity:0.22}97.619%{opacity:0.22}}@keyframes k46{0.000%{opacity:0}25.794%{opacity:0}29.365%{opacity:1}45.238%{opacity:1}48.413%{opacity:0.22}92.857%{opacity:0.22}97.619%{opacity:0.22}}@keyframes k47{0.000%{opacity:0}25.794%{opacity:0}29.365%{opacity:1}45.238%{opacity:1}48.413%{opacity:0.22}92.857%{opacity:0.22}97.619%{opacity:0.22}}@keyframes k48{0.000%{opacity:0}25.794%{opacity:0}29.365%{opacity:1}45.238%{opacity:1}48.413%{opacity:0.22}92.857%{opacity:0.22}97.619%{opacity:0.22}}@keyframes k49{0.000%{opacity:0}26.587%{opacity:0}30.159%{opacity:1}45.238%{opacity:1}48.413%{opacity:0.22}92.857%{opacity:0.22}97.619%{opacity:0.22}}@keyframes k50{0.000%{opacity:0}26.587%{opacity:0}30.159%{opacity:1}45.238%{opacity:1}48.413%{opacity:0.22}92.857%{opacity:0.22}97.619%{opacity:0.22}}@keyframes k51{0.000%{opacity:0}27.381%{opacity:0}30.952%{opacity:1}45.238%{opacity:1}48.413%{opacity:0.22}92.857%{opacity:0.22}97.619%{opacity:0.22}}@keyframes k52{0.000%{opacity:0}27.381%{opacity:0}30.952%{opacity:1}45.238%{opacity:1}48.413%{opacity:0.22}92.857%{opacity:0.22}97.619%{opacity:0.22}}@keyframes k53{0.000%{opacity:0}25.794%{opacity:0}29.365%{opacity:1}45.238%{opacity:1}48.413%{opacity:0.22}92.857%{opacity:0.22}97.619%{opacity:0.22}}@keyframes k54{0.000%{opacity:0}26.587%{opacity:0}30.159%{opacity:1}45.238%{opacity:1}48.413%{opacity:0.22}92.857%{opacity:0.22}97.619%{opacity:0.22}}@keyframes k55{0.000%{opacity:0}27.381%{opacity:0}30.952%{opacity:1}45.238%{opacity:1}48.413%{opacity:0.22}92.857%{opacity:0.22}97.619%{opacity:0.22}}@keyframes k56{0.000%{opacity:0}27.381%{opacity:0}30.952%{opacity:1}45.238%{opacity:1}48.413%{opacity:0.22}92.857%{opacity:0.22}97.619%{opacity:0.22}}@keyframes k57{0.000%{opacity:0}28.175%{opacity:0}31.746%{opacity:1}45.238%{opacity:1}48.413%{opacity:0.22}92.857%{opacity:0.22}97.619%{opacity:0.22}}@keyframes k58{0.000%{opacity:0}28.968%{opacity:0}32.540%{opacity:1}45.238%{opacity:1}48.413%{opacity:0.22}92.857%{opacity:0.22}97.619%{opacity:0.22}}@keyframes k59{0.000%{opacity:0}29.762%{opacity:0}33.333%{opacity:1}45.238%{opacity:1}48.413%{opacity:0.22}92.857%{opacity:0.22}97.619%{opacity:0.22}}@keyframes k60{0.000%{opacity:0}30.556%{opacity:0}34.127%{opacity:1}45.238%{opacity:1}48.413%{opacity:0.22}92.857%{opacity:0.22}97.619%{opacity:0.22}}@keyframes k61{0.000%{opacity:0}28.968%{opacity:0}32.540%{opacity:1}45.238%{opacity:1}48.413%{opacity:0.22}92.857%{opacity:0.22}97.619%{opacity:0.22}}@keyframes k62{0.000%{opacity:0}50.000%{opacity:0}53.571%{opacity:1}92.857%{opacity:1}97.619%{opacity:1}}@keyframes k63{0.000%{opacity:0}51.587%{opacity:0}55.159%{opacity:1}92.857%{opacity:1}97.619%{opacity:1}}@keyframes k64{0.000%{opacity:0}53.968%{opacity:0}57.540%{opacity:1}92.857%{opacity:1}97.619%{opacity:1}}@keyframes k65{0.000%{opacity:0}70.238%{opacity:0}73.810%{opacity:1}92.857%{opacity:1}97.619%{opacity:1}}@keyframes k66{0.000%{opacity:0}71.825%{opacity:0}75.397%{opacity:1}92.857%{opacity:1}97.619%{opacity:1}}@keyframes k67{0.000%{opacity:0}74.206%{opacity:0}77.778%{opacity:1}92.857%{opacity:1}97.619%{opacity:1}}@keyframes k68{0.000%{opacity:0}78.175%{opacity:0}81.746%{opacity:1}92.857%{opacity:1}97.619%{opacity:1}}@keyframes k69{0.000%{opacity:1}22.619%{opacity:1}25.794%{opacity:0}92.857%{opacity:0}97.619%{opacity:0}}@keyframes k70{0.000%{opacity:0}24.206%{opacity:0}27.778%{opacity:1}45.238%{opacity:1}48.413%{opacity:0}92.857%{opacity:0}97.619%{opacity:0}}@keyframes k71{0.000%{opacity:0}46.825%{opacity:0}50.397%{opacity:1}67.857%{opacity:1}71.032%{opacity:0}92.857%{opacity:0}97.619%{opacity:0}}@keyframes k72{0.000%{opacity:0}69.444%{opacity:0}73.016%{opacity:1}92.857%{opacity:1}97.619%{opacity:1}}@keyframes k73{0.000%{opacity:1}92.857%{opacity:1}97.619%{opacity:1}}@keyframes k74{0.000%{opacity:0}3.175%{opacity:1}94.444%{opacity:1}99.206%{opacity:0}}</style><rect x="-1" y="-51" width="642" height="602" fill="#FFFFFF"/><g style="animation:k74 12.60s linear infinite"><text class="ttl" x="20.0" y="-22.0" style="animation:k73 12.60s linear infinite">Why keep only a few possibilities?</text>
<g style="animation:k1 12.60s linear infinite"><polygon points="42.1,30 60.3,40.5 48.2,47.5 30,37" class="idk"/><polygon points="60.3,41.2 48.2,48.2 48.2,47.5 60.3,40.5" class="idk2"/><polygon points="30,37.7 48.2,48.2 48.2,47.5 30,37" class="idk3"/><g ><polygon points="45.1,31.7 42,33.5 42,28.7 45.1,26.9" class="ia r"/><polygon points="39,31.8 42,33.5 42,28.7 39,26.9" class="ia fr"/><polygon points="42.1,25.1 45.1,26.9 42,28.7 39,26.9" class="ia t"/></g></g>
<rect class="ring" x="27" y="22" width="36.3" height="36" rx="5" style="animation:k2 12.60s linear infinite"/>
<rect class="ring" x="27" y="22" width="36.3" height="36" rx="5" style="animation:k3 12.60s linear infinite"/>
<g style="animation:k4 12.60s linear infinite"><polygon points="80.1,30 98.3,40.5 86.2,47.5 68,37" class="idk"/><polygon points="98.3,41.2 86.2,48.2 86.2,47.5 98.3,40.5" class="idk2"/><polygon points="68,37.7 86.2,48.2 86.2,47.5 68,37" class="idk3"/><g ><polygon points="74.1,36.9 71,38.7 71,33.9 74.1,32.1" class="ia r"/><polygon points="68,37 71,38.7 71,33.9 68,32.1" class="ia fr"/><polygon points="71.1,30.3 74.1,32.1 71,33.9 68,32.1" class="ia t"/></g></g>
<rect class="ring" x="65" y="22" width="36.3" height="36" rx="5" style="animation:k5 12.60s linear infinite"/>
<g style="animation:k6 12.60s linear infinite"><polygon points="118.1,30 136.3,40.5 124.2,47.5 106,37" class="idk"/><polygon points="136.3,41.2 124.2,48.2 124.2,47.5 136.3,40.5" class="idk2"/><polygon points="106,37.7 124.2,48.2 124.2,47.5 106,37" class="idk3"/><g ><polygon points="136.3,40.5 133.2,42.3 133.2,37.4 136.3,35.6" class="ia r"/><polygon points="130.2,40.6 133.2,42.3 133.2,37.4 130.2,35.7" class="ia fr"/><polygon points="133.3,33.9 136.3,35.6 133.2,37.4 130.2,35.7" class="ia t"/></g></g>
<g style="animation:k7 12.60s linear infinite"><polygon points="156.1,30 174.3,40.5 162.2,47.5 144,37" class="idk"/><polygon points="174.3,41.2 162.2,48.2 162.2,47.5 174.3,40.5" class="idk2"/><polygon points="144,37.7 162.2,48.2 162.2,47.5 144,37" class="idk3"/><g ><polygon points="165.3,45.7 162.2,47.5 162.2,42.6 165.3,40.8" class="ia r"/><polygon points="159.2,45.8 162.2,47.5 162.2,42.6 159.2,40.9" class="ia fr"/><polygon points="162.3,39.1 165.3,40.8 162.2,42.6 159.2,40.9" class="ia t"/></g></g>
<g style="animation:k8 12.60s linear infinite"><polygon points="194.1,30 212.3,40.5 200.2,47.5 182,37" class="idk"/><polygon points="212.3,41.2 200.2,48.2 200.2,47.5 212.3,40.5" class="idk2"/><polygon points="182,37.7 200.2,48.2 200.2,47.5 182,37" class="idk3"/><g ><polygon points="197.2,31.8 194.2,33.5 194.2,28.7 197.2,26.9" class="ia r"/><polygon points="191.1,31.7 194.2,33.5 194.2,28.7 191.1,26.9" class="ia fr"/><polygon points="194.1,25.1 197.2,26.9 194.2,28.7 191.1,26.9" class="ia t"/></g></g>
<g style="animation:k9 12.60s linear infinite"><polygon points="232.1,30 250.3,40.5 238.2,47.5 220,37" class="idk"/><polygon points="250.3,41.2 238.2,48.2 238.2,47.5 250.3,40.5" class="idk2"/><polygon points="220,37.7 238.2,48.2 238.2,47.5 220,37" class="idk3"/><g ><polygon points="226.1,37.1 223.1,38.8 223.1,33.9 226.1,32.2" class="ia r"/><polygon points="220,37 223.1,38.8 223.1,33.9 220,32.1" class="ia fr"/><polygon points="223,30.4 226.1,32.2 223.1,33.9 220,32.1" class="ia t"/></g></g>
<g style="animation:k10 12.60s linear infinite"><polygon points="270.1,30 288.3,40.5 276.2,47.5 258,37" class="idk"/><polygon points="288.3,41.2 276.2,48.2 276.2,47.5 288.3,40.5" class="idk2"/><polygon points="258,37.7 276.2,48.2 276.2,47.5 258,37" class="idk3"/><g ><polygon points="288.3,40.5 285.3,42.2 285.3,37.4 288.3,35.6" class="ia r"/><polygon points="282.2,40.4 285.3,42.2 285.3,37.4 282.2,35.6" class="ia fr"/><polygon points="285.2,33.8 288.3,35.6 285.3,37.4 282.2,35.6" class="ia t"/></g></g>
<g style="animation:k11 12.60s linear infinite"><polygon points="308.1,30 326.3,40.5 314.2,47.5 296,37" class="idk"/><polygon points="326.3,41.2 314.2,48.2 314.2,47.5 326.3,40.5" class="idk2"/><polygon points="296,37.7 314.2,48.2 314.2,47.5 296,37" class="idk3"/><g ><polygon points="317.2,45.8 314.2,47.5 314.2,42.6 317.2,40.9" class="ia r"/><polygon points="311.1,45.7 314.2,47.5 314.2,42.6 311.1,40.8" class="ia fr"/><polygon points="314.1,39.1 317.2,40.9 314.2,42.6 311.1,40.8" class="ia t"/></g></g>
<g style="animation:k12 12.60s linear infinite"><polygon points="346.1,30 364.3,40.5 352.2,47.5 334,37" class="idk"/><polygon points="364.3,41.2 352.2,48.2 352.2,47.5 364.3,40.5" class="idk2"/><polygon points="334,37.7 352.2,48.2 352.2,47.5 334,37" class="idk3"/><g ><polygon points="350.7,32.6 345.2,35.8 345.2,32.9 350.7,29.7" class="ib r"/><polygon points="340.7,33.1 345.2,35.8 345.2,32.9 340.7,30.3" class="ib fr"/><polygon points="346.1,27.1 350.7,29.7 345.2,32.9 340.7,30.3" class="ib t"/></g></g>
<g style="animation:k13 12.60s linear infinite"><polygon points="384.1,30 402.3,40.5 390.2,47.5 372,37" class="idk"/><polygon points="402.3,41.2 390.2,48.2 390.2,47.5 402.3,40.5" class="idk2"/><polygon points="372,37.7 390.2,48.2 390.2,47.5 372,37" class="idk3"/><g ><polygon points="382,36.5 376.5,39.6 376.5,36.7 382,33.6" class="ib r"/><polygon points="372,37 376.5,39.6 376.5,36.7 372,34.1" class="ib fr"/><polygon points="377.5,31 382,33.6 376.5,36.7 372,34.1" class="ib t"/></g></g>
<g style="animation:k14 12.60s linear infinite"><polygon points="422.1,30 440.3,40.5 428.2,47.5 410,37" class="idk"/><polygon points="440.3,41.2 428.2,48.2 428.2,47.5 440.3,40.5" class="idk2"/><polygon points="410,37.7 428.2,48.2 428.2,47.5 410,37" class="idk3"/><g ><polygon points="440.3,40.5 434.9,43.7 434.9,40.8 440.3,37.6" class="ib r"/><polygon points="430.3,41 434.9,43.7 434.9,40.8 430.3,38.1" class="ib fr"/><polygon points="435.8,35 440.3,37.6 434.9,40.8 430.3,38.1" class="ib t"/></g></g>
<g style="animation:k15 12.60s linear infinite"><polygon points="460.1,30 478.3,40.5 466.2,47.5 448,37" class="idk"/><polygon points="478.3,41.2 466.2,48.2 466.2,47.5 478.3,40.5" class="idk2"/><polygon points="448,37.7 466.2,48.2 466.2,47.5 448,37" class="idk3"/><g ><polygon points="471.6,44.4 466.2,47.5 466.2,44.6 471.6,41.5" class="ib r"/><polygon points="461.6,44.9 466.2,47.5 466.2,44.6 461.6,42" class="ib fr"/><polygon points="467.1,38.8 471.6,41.5 466.2,44.6 461.6,42" class="ib t"/></g></g>
<g style="animation:k16 12.60s linear infinite"><polygon points="498.1,30 516.3,40.5 504.2,47.5 486,37" class="idk"/><polygon points="516.3,41.2 504.2,48.2 504.2,47.5 516.3,40.5" class="idk2"/><polygon points="486,37.7 504.2,48.2 504.2,47.5 486,37" class="idk3"/><g ><polygon points="503.6,33.1 499,35.8 499,32.9 503.6,30.3" class="ib r"/><polygon points="493.6,32.6 499,35.8 499,32.9 493.6,29.7" class="ib fr"/><polygon points="498.1,27.1 503.6,30.3 499,32.9 493.6,29.7" class="ib t"/></g></g>
<g style="animation:k17 12.60s linear infinite"><polygon points="536.1,30 554.3,40.5 542.2,47.5 524,37" class="idk"/><polygon points="554.3,41.2 542.2,48.2 542.2,47.5 554.3,40.5" class="idk2"/><polygon points="524,37.7 542.2,48.2 542.2,47.5 524,37" class="idk3"/><g ><polygon points="534,37.5 529.5,40.1 529.5,37.3 534,34.6" class="ib r"/><polygon points="524,37 529.5,40.1 529.5,37.3 524,34.1" class="ib fr"/><polygon points="528.5,31.5 534,34.6 529.5,37.3 524,34.1" class="ib t"/></g></g>
<g style="animation:k18 12.60s linear infinite"><polygon points="574.1,30 592.3,40.5 580.2,47.5 562,37" class="idk"/><polygon points="592.3,41.2 580.2,48.2 580.2,47.5 592.3,40.5" class="idk2"/><polygon points="562,37.7 580.2,48.2 580.2,47.5 562,37" class="idk3"/><g ><polygon points="592.3,40.5 587.8,43.1 587.8,40.2 592.3,37.6" class="ib r"/><polygon points="582.3,40 587.8,43.1 587.8,40.2 582.3,37.1" class="ib fr"/><polygon points="586.9,34.5 592.3,37.6 587.8,40.2 582.3,37.1" class="ib t"/></g></g>
<g style="animation:k19 12.60s linear infinite"><polygon points="612.1,30 630.3,40.5 618.2,47.5 600,37" class="idk"/><polygon points="630.3,41.2 618.2,48.2 618.2,47.5 630.3,40.5" class="idk2"/><polygon points="600,37.7 618.2,48.2 618.2,47.5 600,37" class="idk3"/><g ><polygon points="622.7,44.9 618.2,47.5 618.2,44.6 622.7,42" class="ib r"/><polygon points="612.7,44.4 618.2,47.5 618.2,44.6 612.7,41.5" class="ib fr"/><polygon points="617.3,38.8 622.7,42 618.2,44.6 612.7,41.5" class="ib t"/></g></g>
<g style="animation:k20 12.60s linear infinite"><polygon points="42.1,70 60.3,80.5 48.2,87.5 30,77" class="idk"/><polygon points="60.3,81.2 48.2,88.2 48.2,87.5 60.3,80.5" class="idk2"/><polygon points="30,77.7 48.2,88.2 48.2,87.5 30,77" class="idk3"/><g ><polygon points="46.4,72.5 40.5,75.8 40.5,72.5 46.4,69.1" class="ic r"/><polygon points="36.2,73.4 40.5,75.8 40.5,72.5 36.2,70" class="ic fr"/><polygon points="42.1,66.6 46.4,69.1 40.5,72.5 36.2,70" class="ic t"/></g></g>
<g style="animation:k21 12.60s linear infinite"><polygon points="80.1,70 98.3,80.5 86.2,87.5 68,77" class="idk"/><polygon points="98.3,81.2 86.2,88.2 86.2,87.5 98.3,80.5" class="idk2"/><polygon points="68,77.7 86.2,88.2 86.2,87.5 68,77" class="idk3"/><g ><polygon points="78.1,76.1 72.2,79.5 72.2,76.1 78.1,72.7" class="ic r"/><polygon points="68,77 72.2,79.5 72.2,76.1 68,73.6" class="ic fr"/><polygon points="73.9,70.2 78.1,72.7 72.2,76.1 68,73.6" class="ic t"/></g></g>
<g style="animation:k22 12.60s linear infinite"><polygon points="118.1,70 136.3,80.5 124.2,87.5 106,77" class="idk"/><polygon points="136.3,81.2 124.2,88.2 124.2,87.5 136.3,80.5" class="idk2"/><polygon points="106,77.7 124.2,88.2 124.2,87.5 106,77" class="idk3"/><g ><polygon points="136.3,80.5 130.4,83.9 130.4,80.5 136.3,77.1" class="ic r"/><polygon points="126.2,81.4 130.4,83.9 130.4,80.5 126.2,78.1" class="ic fr"/><polygon points="132.1,74.7 136.3,77.1 130.4,80.5 126.2,78.1" class="ic t"/></g></g>
<g style="animation:k23 12.60s linear infinite"><polygon points="156.1,70 174.3,80.5 162.2,87.5 144,77" class="idk"/><polygon points="174.3,81.2 162.2,88.2 162.2,87.5 174.3,80.5" class="idk2"/><polygon points="144,77.7 162.2,88.2 162.2,87.5 144,77" class="idk3"/><g ><polygon points="168.1,84.1 162.2,87.5 162.2,84.1 168.1,80.7" class="ic r"/><polygon points="157.9,85 162.2,87.5 162.2,84.1 157.9,81.7" class="ic fr"/><polygon points="163.8,78.3 168.1,80.7 162.2,84.1 157.9,81.7" class="ic t"/></g></g>
<g style="animation:k24 12.60s linear infinite"><polygon points="194.1,70 212.3,80.5 200.2,87.5 182,77" class="idk"/><polygon points="212.3,81.2 200.2,88.2 200.2,87.5 212.3,80.5" class="idk2"/><polygon points="182,77.7 200.2,88.2 200.2,87.5 182,77" class="idk3"/><g ><polygon points="200,73.4 195.8,75.8 195.8,72.5 200,70" class="ic r"/><polygon points="189.9,72.5 195.8,75.8 195.8,72.5 189.9,69.1" class="ic fr"/><polygon points="194.1,66.6 200,70 195.8,72.5 189.9,69.1" class="ic t"/></g></g>
<g style="animation:k25 12.60s linear infinite"><polygon points="232.1,70 250.3,80.5 238.2,87.5 220,77" class="idk"/><polygon points="250.3,81.2 238.2,88.2 238.2,87.5 250.3,80.5" class="idk2"/><polygon points="220,77.7 238.2,88.2 238.2,87.5 220,77" class="idk3"/><g ><polygon points="230.1,77.9 225.9,80.4 225.9,77 230.1,74.6" class="ic r"/><polygon points="220,77 225.9,80.4 225.9,77 220,73.6" class="ic fr"/><polygon points="224.2,71.2 230.1,74.6 225.9,77 220,73.6" class="ic t"/></g></g>
<g style="animation:k26 12.60s linear infinite"><polygon points="270.1,70 288.3,80.5 276.2,87.5 258,77" class="idk"/><polygon points="288.3,81.2 276.2,88.2 276.2,87.5 288.3,80.5" class="idk2"/><polygon points="258,77.7 276.2,88.2 276.2,87.5 258,77" class="idk3"/><g ><polygon points="288.3,80.5 284.1,83 284.1,79.6 288.3,77.1" class="ic r"/><polygon points="278.2,79.6 284.1,83 284.1,79.6 278.2,76.2" class="ic fr"/><polygon points="282.4,73.7 288.3,77.1 284.1,79.6 278.2,76.2" class="ic t"/></g></g>
<g style="animation:k27 12.60s linear infinite"><polygon points="308.1,70 326.3,80.5 314.2,87.5 296,77" class="idk"/><polygon points="326.3,81.2 314.2,88.2 314.2,87.5 326.3,80.5" class="idk2"/><polygon points="296,77.7 314.2,88.2 314.2,87.5 296,77" class="idk3"/><g ><polygon points="318.4,85 314.2,87.5 314.2,84.1 318.4,81.7" class="ic r"/><polygon points="308.3,84.1 314.2,87.5 314.2,84.1 308.3,80.7" class="ic fr"/><polygon points="312.5,78.3 318.4,81.7 314.2,84.1 308.3,80.7" class="ic t"/></g></g>
<g style="animation:k28 12.60s linear infinite"><polygon points="346.1,70 364.3,80.5 352.2,87.5 334,77" class="idk"/><polygon points="364.3,81.2 352.2,88.2 352.2,87.5 364.3,80.5" class="idk2"/><polygon points="334,77.7 352.2,88.2 352.2,87.5 334,77" class="idk3"/><g ><polygon points="350.6,72.6 345,75.8 345,72 350.6,68.8" class="id r"/><polygon points="340.5,73.2 345,75.8 345,72 340.5,69.4" class="id fr"/><polygon points="346.1,66.2 350.6,68.8 345,72 340.5,69.4" class="id t"/></g></g>
<rect class="ring" x="331" y="62" width="36.3" height="36" rx="5" style="animation:k29 12.60s linear infinite"/>
<g style="animation:k30 12.60s linear infinite"><polygon points="384.1,70 402.3,80.5 390.2,87.5 372,77" class="idk"/><polygon points="402.3,81.2 390.2,88.2 390.2,87.5 402.3,80.5" class="idk2"/><polygon points="372,77.7 390.2,88.2 390.2,87.5 372,77" class="idk3"/><g ><polygon points="382.1,76.4 376.5,79.6 376.5,75.8 382.1,72.5" class="id r"/><polygon points="372,77 376.5,79.6 376.5,75.8 372,73.2" class="id fr"/><polygon points="377.6,69.9 382.1,72.5 376.5,75.8 372,73.2" class="id t"/></g></g>
<g style="animation:k31 12.60s linear infinite"><polygon points="422.1,70 440.3,80.5 428.2,87.5 410,77" class="idk"/><polygon points="440.3,81.2 428.2,88.2 428.2,87.5 440.3,80.5" class="idk2"/><polygon points="410,77.7 428.2,88.2 428.2,87.5 410,77" class="idk3"/><g ><polygon points="440.3,80.5 434.7,83.7 434.7,79.9 440.3,76.7" class="id r"/><polygon points="430.2,81.1 434.7,83.7 434.7,79.9 430.2,77.3" class="id fr"/><polygon points="435.8,74 440.3,76.7 434.7,79.9 430.2,77.3" class="id t"/></g></g>
<g style="animation:k32 12.60s linear infinite"><polygon points="460.1,70 478.3,80.5 466.2,87.5 448,77" class="idk"/><polygon points="478.3,81.2 466.2,88.2 466.2,87.5 478.3,80.5" class="idk2"/><polygon points="448,77.7 466.2,88.2 466.2,87.5 448,77" class="idk3"/><g ><polygon points="471.8,84.3 466.2,87.5 466.2,83.7 471.8,80.4" class="id r"/><polygon points="461.7,84.9 466.2,87.5 466.2,83.7 461.7,81" class="id fr"/><polygon points="467.3,77.8 471.8,80.4 466.2,83.7 461.7,81" class="id t"/></g></g>
<g style="animation:k33 12.60s linear infinite"><polygon points="498.1,70 516.3,80.5 504.2,87.5 486,77" class="idk"/><polygon points="516.3,81.2 504.2,88.2 504.2,87.5 516.3,80.5" class="idk2"/><polygon points="486,77.7 504.2,88.2 504.2,87.5 486,77" class="idk3"/><g ><polygon points="503.7,73.2 499.2,75.8 499.2,72 503.7,69.4" class="id r"/><polygon points="493.6,72.6 499.2,75.8 499.2,72 493.6,68.8" class="id fr"/><polygon points="498.1,66.2 503.7,69.4 499.2,72 493.6,68.8" class="id t"/></g></g>
<g style="animation:k34 12.60s linear infinite"><polygon points="536.1,70 554.3,80.5 542.2,87.5 524,77" class="idk"/><polygon points="554.3,81.2 542.2,88.2 542.2,87.5 554.3,80.5" class="idk2"/><polygon points="524,77.7 542.2,88.2 542.2,87.5 524,77" class="idk3"/><g ><polygon points="534.1,77.6 529.6,80.2 529.6,76.4 534.1,73.8" class="id r"/><polygon points="524,77 529.6,80.2 529.6,76.4 524,73.2" class="id fr"/><polygon points="528.5,70.5 534.1,73.8 529.6,76.4 524,73.2" class="id t"/></g></g>
<g style="animation:k35 12.60s linear infinite"><polygon points="574.1,70 592.3,80.5 580.2,87.5 562,77" class="idk"/><polygon points="592.3,81.2 580.2,88.2 580.2,87.5 592.3,80.5" class="idk2"/><polygon points="562,77.7 580.2,88.2 580.2,87.5 562,77" class="idk3"/><g ><polygon points="592.3,80.5 587.8,83.1 587.8,79.3 592.3,76.7" class="id r"/><polygon points="582.2,79.9 587.8,83.1 587.8,79.3 582.2,76" class="id fr"/><polygon points="586.7,73.4 592.3,76.7 587.8,79.3 582.2,76" class="id t"/></g></g>
<g style="animation:k36 12.60s linear infinite"><polygon points="612.1,70 630.3,80.5 618.2,87.5 600,77" class="idk"/><polygon points="630.3,81.2 618.2,88.2 618.2,87.5 630.3,80.5" class="idk2"/><polygon points="600,77.7 618.2,88.2 618.2,87.5 600,77" class="idk3"/><g ><polygon points="622.7,84.9 618.2,87.5 618.2,83.7 622.7,81" class="id r"/><polygon points="612.6,84.3 618.2,87.5 618.2,83.7 612.6,80.4" class="id fr"/><polygon points="617.1,77.8 622.7,81 618.2,83.7 612.6,80.4" class="id t"/></g></g>
<text x="10" y="18">the possible first moves</text>
<line class="edge" x1="50" y1="112" x2="334" y2="170" style="animation:k37 12.60s linear infinite"/>
<line class="edge" x1="126" y1="112" x2="346" y2="170" style="animation:k38 12.60s linear infinite"/>
<line class="edge" x1="202" y1="112" x2="358" y2="170" style="animation:k39 12.60s linear infinite"/>
<line class="edge" x1="278" y1="112" x2="370" y2="170" style="animation:k40 12.60s linear infinite"/>
<line class="edge" x1="354" y1="112" x2="382" y2="170" style="animation:k41 12.60s linear infinite"/>
<line class="edge" x1="430" y1="112" x2="394" y2="170" style="animation:k42 12.60s linear infinite"/>
<line class="edge" x1="506" y1="112" x2="406" y2="170" style="animation:k43 12.60s linear infinite"/>
<line class="edge" x1="582" y1="112" x2="418" y2="170" style="animation:k44 12.60s linear infinite"/>
<line class="edge" x1="50" y1="112" x2="430" y2="170" style="animation:k45 12.60s linear infinite"/>
<line class="edge" x1="126" y1="112" x2="442" y2="170" style="animation:k46 12.60s linear infinite"/>
<line class="edge" x1="202" y1="112" x2="454" y2="170" style="animation:k47 12.60s linear infinite"/>
<line class="edge" x1="278" y1="112" x2="466" y2="170" style="animation:k48 12.60s linear infinite"/>
<line class="edge" x1="354" y1="112" x2="478" y2="170" style="animation:k49 12.60s linear infinite"/>
<line class="edge" x1="430" y1="112" x2="490" y2="170" style="animation:k50 12.60s linear infinite"/>
<line class="edge" x1="506" y1="112" x2="502" y2="170" style="animation:k51 12.60s linear infinite"/>
<line class="edge" x1="582" y1="112" x2="514" y2="170" style="animation:k52 12.60s linear infinite"/>
<g style="animation:k53 12.60s linear infinite"><polygon points="384,172 415.2,190 394.4,202 363.2,184" class="idk"/><polygon points="415.2,191.2 394.4,203.2 394.4,202 415.2,190" class="idk2"/><polygon points="363.2,185.2 394.4,203.2 394.4,202 363.2,184" class="idk3"/><g ><polygon points="389.1,175 383.8,178.1 383.8,169.7 389.1,166.6" class="ia r"/><polygon points="378.6,175.1 383.8,178.1 383.8,169.7 378.6,166.8" class="ia fr"/><polygon points="384,163.7 389.1,166.6 383.8,169.7 378.6,166.8" class="ia t"/></g><g ><polygon points="389.1,175 383.8,178.1 383.8,169.7 389.1,166.6" class="ia r"/><polygon points="378.6,175.1 383.8,178.1 383.8,169.7 378.6,166.8" class="ia fr"/><polygon points="384,163.7 389.1,166.6 383.8,169.7 378.6,166.8" class="ia t"/></g></g>
<g style="animation:k54 12.60s linear infinite"><polygon points="450,172 481.2,190 460.4,202 429.2,184" class="idk"/><polygon points="481.2,191.2 460.4,203.2 460.4,202 481.2,190" class="idk2"/><polygon points="429.2,185.2 460.4,203.2 460.4,202 429.2,184" class="idk3"/><g ><polygon points="455.4,175.1 450.2,178.1 450.2,169.7 455.4,166.8" class="ia r"/><polygon points="444.9,175 450.2,178.1 450.2,169.7 444.9,166.6" class="ia fr"/><polygon points="450,163.7 455.4,166.8 450.2,169.7 444.9,166.6" class="ia t"/></g><g ><polygon points="452.7,179.5 443.3,184.9 443.3,179.9 452.7,174.5" class="ib r"/><polygon points="435.5,180.4 443.3,184.9 443.3,179.9 435.5,175.4" class="ib fr"/><polygon points="444.9,170 452.7,174.5 443.3,179.9 435.5,175.4" class="ib t"/></g></g>
<g style="animation:k55 12.60s linear infinite"><polygon points="516,172 547.2,190 526.4,202 495.2,184" class="idk"/><polygon points="547.2,191.2 526.4,203.2 526.4,202 547.2,190" class="idk2"/><polygon points="495.2,185.2 526.4,203.2 526.4,202 495.2,184" class="idk3"/><g ><polygon points="523.8,176.5 514.4,181.9 514.4,177 523.8,171.6" class="ib r"/><polygon points="506.6,177.4 514.4,181.9 514.4,177 506.6,172.5" class="ib fr"/><polygon points="516,167.1 523.8,171.6 514.4,177 506.6,172.5" class="ib t"/></g><g ><polygon points="513.9,181.6 503.8,187.4 503.8,181.7 513.9,175.8" class="ic r"/><polygon points="496.6,183.2 503.8,187.4 503.8,181.7 496.6,177.5" class="ic fr"/><polygon points="506.6,171.6 513.9,175.8 503.8,181.7 496.6,177.5" class="ic t"/></g></g>
<g style="animation:k56 12.60s linear infinite"><polygon points="582,172 613.2,190 592.4,202 561.2,184" class="idk"/><polygon points="613.2,191.2 592.4,203.2 592.4,202 613.2,190" class="idk2"/><polygon points="561.2,185.2 592.4,203.2 592.4,202 561.2,184" class="idk3"/><g ><polygon points="611.8,190.8 601.7,196.6 601.7,190.8 611.8,185" class="ic r"/><polygon points="594.5,192.4 601.7,196.6 601.7,190.8 594.5,186.6" class="ic fr"/><polygon points="604.6,180.8 611.8,185 601.7,190.8 594.5,186.6" class="ic t"/></g><g ><polygon points="601.7,196.6 592.4,202 592.4,197.1 601.7,191.7" class="ib r"/><polygon points="584.6,197.5 592.4,202 592.4,197.1 584.6,192.6" class="ib fr"/><polygon points="594,187.2 601.7,191.7 592.4,197.1 584.6,192.6" class="ib t"/></g></g>
<g style="animation:k57 12.60s linear infinite"><polygon points="384,218 415.2,236 394.4,248 363.2,230" class="idk"/><polygon points="415.2,237.2 394.4,249.2 394.4,248 415.2,236" class="idk2"/><polygon points="363.2,231.2 394.4,249.2 394.4,248 363.2,230" class="idk3"/><g ><polygon points="383.9,227 374.3,232.5 374.3,225.9 383.9,220.4" class="id r"/><polygon points="366.6,228.1 374.3,232.5 374.3,225.9 366.6,221.5" class="id fr"/><polygon points="376.2,215.9 383.9,220.4 374.3,225.9 366.6,221.5" class="id t"/></g><g ><polygon points="415.2,236 407.4,240.5 407.4,235.6 415.2,231.1" class="ib r"/><polygon points="398,235.1 407.4,240.5 407.4,235.6 398,230.2" class="ib fr"/><polygon points="405.8,225.7 415.2,231.1 407.4,235.6 398,230.2" class="ib t"/></g></g>
<g style="animation:k58 12.60s linear infinite"><polygon points="450,218 481.2,236 460.4,248 429.2,230" class="idk"/><polygon points="481.2,237.2 460.4,249.2 460.4,248 481.2,236" class="idk2"/><polygon points="429.2,231.2 460.4,249.2 460.4,248 429.2,230" class="idk3"/><g ><polygon points="481.2,236 471.1,241.8 471.1,236.1 481.2,230.2" class="ic r"/><polygon points="463.8,237.6 471.1,241.8 471.1,236.1 463.8,231.9" class="ic fr"/><polygon points="473.9,226 481.2,230.2 471.1,236.1 463.8,231.9" class="ic t"/></g><g ><polygon points="460.9,239.3 453.1,243.8 453.1,238.9 460.9,234.4" class="ib r"/><polygon points="443.8,238.4 453.1,243.8 453.1,238.9 443.8,233.5" class="ib fr"/><polygon points="451.6,229 460.9,234.4 453.1,238.9 443.8,233.5" class="ib t"/></g></g>
<g style="animation:k59 12.60s linear infinite"><polygon points="516,218 547.2,236 526.4,248 495.2,230" class="idk"/><polygon points="547.2,237.2 526.4,249.2 526.4,248 547.2,236" class="idk2"/><polygon points="495.2,231.2 526.4,249.2 526.4,248 495.2,230" class="idk3"/><g ><polygon points="525.6,223.6 517.9,228 517.9,221.4 525.6,217" class="id r"/><polygon points="508.3,222.5 517.9,228 517.9,221.4 508.3,215.9" class="id fr"/><polygon points="516,211.4 525.6,217 517.9,221.4 508.3,215.9" class="id t"/></g><g ><polygon points="547.2,236 539.9,240.2 539.9,234.4 547.2,230.2" class="ic r"/><polygon points="529.8,234.4 539.9,240.2 539.9,234.4 529.8,228.6" class="ic fr"/><polygon points="537.1,224.4 547.2,230.2 539.9,234.4 529.8,228.6" class="ic t"/></g></g>
<g style="animation:k60 12.60s linear infinite"><polygon points="582,218 613.2,236 592.4,248 561.2,230" class="idk"/><polygon points="613.2,237.2 592.4,249.2 592.4,248 613.2,236" class="idk2"/><polygon points="561.2,231.2 592.4,249.2 592.4,248 561.2,230" class="idk3"/><g ><polygon points="602,242.4 592.4,248 592.4,241.4 602,235.8" class="id r"/><polygon points="584.7,243.5 592.4,248 592.4,241.4 584.7,236.9" class="id fr"/><polygon points="594.3,231.4 602,235.8 592.4,241.4 584.7,236.9" class="id t"/></g><g ><polygon points="595.1,243.7 590,246.6 590,238.3 595.1,235.3" class="ia r"/><polygon points="584.7,243.5 590,246.6 590,238.3 584.7,235.2" class="ia fr"/><polygon points="589.8,232.2 595.1,235.3 590,238.3 584.7,235.2" class="ia t"/></g></g>
<g style="animation:k61 12.60s linear infinite"><text class="a" x="490" y="290" text-anchor="middle">keep them all: it explodes</text><text x="490" y="306" text-anchor="middle">with every box</text></g>
<g style="animation:k62 12.60s linear infinite"><polygon points="98,168 155.2,201 117.1,223 59.9,190" class="idk"/><polygon points="155.2,203.2 117.1,225.2 117.1,223 155.2,201" class="idk2"/><polygon points="59.9,192.2 117.1,225.2 117.1,223 59.9,190" class="idk3"/><g ><polygon points="107.4,173.4 97.6,179.1 97.6,163.8 107.4,158.2" class="ia r"/><polygon points="88.2,173.7 97.6,179.1 97.6,163.8 88.2,158.4" class="ia fr"/><polygon points="98,152.7 107.4,158.2 97.6,163.8 88.2,158.4" class="ia t"/></g></g>
<g style="animation:k63 12.60s linear infinite"><polygon points="218,168 275.2,201 237.1,223 179.9,190" class="idk"/><polygon points="275.2,203.2 237.1,225.2 237.1,223 275.2,201" class="idk2"/><polygon points="179.9,192.2 237.1,225.2 237.1,223 179.9,190" class="idk3"/><g ><polygon points="199.1,189.8 189.3,195.4 189.3,180.2 199.1,174.5" class="ia r"/><polygon points="179.9,190 189.3,195.4 189.3,180.2 179.9,174.7" class="ia fr"/><polygon points="189.7,169 199.1,174.5 189.3,180.2 179.9,174.7" class="ia t"/></g></g>
<g style="animation:k64 12.60s linear infinite"><text x="10" y="140">keep the best few</text><line class="edge" x1="150" y1="246" x2="150" y2="280"/></g>
<g style="animation:k65 12.60s linear infinite"><polygon points="98,328 155.2,361 117.1,383 59.9,350" class="idk"/><polygon points="155.2,363.2 117.1,385.2 117.1,383 155.2,361" class="idk2"/><polygon points="59.9,352.2 117.1,385.2 117.1,383 59.9,350" class="idk3"/><g ><polygon points="107.4,333.4 97.6,339.1 97.6,323.8 107.4,318.2" class="ia r"/><polygon points="88.2,333.7 97.6,339.1 97.6,323.8 88.2,318.4" class="ia fr"/><polygon points="98,312.7 107.4,318.2 97.6,323.8 88.2,318.4" class="ia t"/></g><g ><polygon points="97.6,339.1 87.8,344.8 87.8,329.5 97.6,323.8" class="ia r"/><polygon points="78.4,339.3 87.8,344.8 87.8,329.5 78.4,324" class="ia fr"/><polygon points="88.2,318.4 97.6,323.8 87.8,329.5 78.4,324" class="ia t"/></g></g>
<g style="animation:k66 12.60s linear infinite"><polygon points="218,328 275.2,361 237.1,383 179.9,350" class="idk"/><polygon points="275.2,363.2 237.1,385.2 237.1,383 275.2,361" class="idk2"/><polygon points="179.9,352.2 237.1,385.2 237.1,383 179.9,350" class="idk3"/><g ><polygon points="227.4,333.4 217.6,339.1 217.6,323.8 227.4,318.2" class="ia r"/><polygon points="208.2,333.7 217.6,339.1 217.6,323.8 208.2,318.4" class="ia fr"/><polygon points="218,312.7 227.4,318.2 217.6,323.8 208.2,318.4" class="ia t"/></g><g ><polygon points="199.1,349.8 189.3,355.4 189.3,340.2 199.1,334.5" class="ia r"/><polygon points="179.9,350 189.3,355.4 189.3,340.2 179.9,334.7" class="ia fr"/><polygon points="189.7,329 199.1,334.5 189.3,340.2 179.9,334.7" class="ia t"/></g></g>
<g style="animation:k67 12.60s linear infinite"><text x="10" y="304">again, keep the best few</text><text x="150" y="428" text-anchor="middle">… and again</text></g>
<g style="animation:k68 12.60s linear infinite"><polygon points="560,372 622.4,408 580.8,432 518.4,396" class="idk"/><polygon points="622.4,410.4 580.8,434.4 580.8,432 622.4,408" class="idk2"/><polygon points="518.4,398.4 580.8,434.4 580.8,432 518.4,396" class="idk3"/><g ><polygon points="570.3,377.9 559.6,384.1 559.6,367.4 570.3,361.3" class="ia r"/><polygon points="549.3,378.2 559.6,384.1 559.6,367.4 549.3,361.5" class="ia fr"/><polygon points="560,355.3 570.3,361.3 559.6,367.4 549.3,361.5" class="ia t"/></g><g ><polygon points="564.8,387.1 545.6,398.2 545.6,385 564.8,373.9" class="id r"/><polygon points="530.1,389.3 545.6,398.2 545.6,385 530.1,376.1" class="id fr"/><polygon points="549.3,365 564.8,373.9 545.6,385 530.1,376.1" class="id t"/></g><g ><polygon points="590,389.3 569.9,401 569.9,389.5 590,377.8" class="ic r"/><polygon points="555.3,392.6 569.9,401 569.9,389.5 555.3,381.1" class="ic fr"/><polygon points="575.5,369.4 590,377.8 569.9,389.5 555.3,381.1" class="ic t"/></g><g ><polygon points="540.4,395.2 529.7,401.4 529.7,384.7 540.4,378.5" class="ia r"/><polygon points="519.4,395.5 529.7,401.4 529.7,384.7 519.4,378.8" class="ia fr"/><polygon points="530.1,372.6 540.4,378.5 529.7,384.7 519.4,378.8" class="ia t"/></g><g ><polygon points="605.6,398.3 586.9,409.1 586.9,399.2 605.6,388.4" class="ib r"/><polygon points="571.3,400.1 586.9,409.1 586.9,399.2 571.3,390.2" class="ib fr"/><polygon points="590,379.4 605.6,388.4 586.9,399.2 571.3,390.2" class="ib t"/></g><g ><polygon points="570.9,401.6 552.2,412.4 552.2,402.5 570.9,391.7" class="ib r"/><polygon points="536.6,403.4 552.2,412.4 552.2,402.5 536.6,393.5" class="ib fr"/><polygon points="555.3,382.7 570.9,391.7 552.2,402.5 536.6,393.5" class="ib t"/></g><g ><polygon points="582.7,406.7 572,412.9 572,396.2 582.7,390" class="ia r"/><polygon points="561.7,406.9 572,412.9 572,396.2 561.7,390.2" class="ia fr"/><polygon points="572.4,384.1 582.7,390 572,396.2 561.7,390.2" class="ia t"/></g><g ><polygon points="592.9,412.6 582.2,418.8 582.2,402.1 592.9,395.9" class="ia r"/><polygon points="572,412.9 582.2,418.8 582.2,402.1 572,396.2" class="ia fr"/><polygon points="582.7,390 592.9,395.9 582.2,402.1 572,396.2" class="ia t"/></g><g ><polygon points="572,412.9 561.2,419 561.2,402.4 572,396.2" class="ia r"/><polygon points="551,413.1 561.2,419 561.2,402.4 551,396.4" class="ia fr"/><polygon points="561.7,390.2 572,396.2 561.2,402.4 551,396.4" class="ia t"/></g><g ><polygon points="582.2,418.8 571.5,425 571.5,408.3 582.2,402.1" class="ia r"/><polygon points="561.2,419 571.5,425 571.5,408.3 561.2,402.4" class="ia fr"/><polygon points="572,396.2 582.2,402.1 571.5,408.3 561.2,402.4" class="ia t"/></g><text x="636" y="352" text-anchor="end">the best ending so far is saved</text></g>
<g style="animation:k69 12.60s linear infinite"><text class="cap" x="20.0" y="474.0">Every box has many possible moves.</text></g><g style="animation:k70 12.60s linear infinite"><text class="cap" x="20.0" y="474.0">Keep them all, and the possibilities explode with every box.</text></g><g style="animation:k71 12.60s linear infinite"><text class="cap" x="20.0" y="474.0">Keep only the top few, ranked by their rollout scores.</text></g><g style="animation:k72 12.60s linear infinite"><text class="cap" x="20.0" y="474.0">Repeat. This is beam search with greedy rollouts.</text></g></g></svg>